<?xml version="1.0" encoding="utf-8"?><svg version="1.1" id="Layer_1" xmlns="http://www.w3.org/2000/svg" xmlns:xlink="http://www.w3.org/1999/xlink" x="0px" y="0px" viewBox="0 0 122.88 101.01" style="enable-background:new 0 0 122.88 101.01" xml:space="preserve"><style type="text/css">.st0{fill-rule:evenodd;clip-rule:evenodd;}</style><g><path class="st0" d="M59.75,24.77h3.37c16.56,0,30.12,13.55,30.12,30.12v30.57h10.13v15.56H19.51V85.45h10.13V54.88 C29.63,38.32,43.19,24.77,59.75,24.77L59.75,24.77z M44.12,75.25h-6.13v-7.98c0-2.23,0-2.47-0.01-2.73 c-0.09-8.52-0.17-15.78,6.97-23.21c2.03-2.11,4.39-3.78,7.03-5.07C45.88,48.4,43.85,61.34,44.12,75.25L44.12,75.25z M11.61,55.55 c1.84,0,3.32,1.49,3.32,3.32s-1.49,3.32-3.32,3.32H3.32C1.49,62.19,0,60.71,0,58.87s1.49-3.32,3.32-3.32H11.61L11.61,55.55z M19.59,32.37c1.58,0.91,2.13,2.93,1.22,4.52c-0.91,1.58-2.93,2.13-4.52,1.22l-7.17-4.14c-1.58-0.91-2.13-2.93-1.22-4.52 c0.91-1.58,2.93-2.13,4.52-1.22L19.59,32.37L19.59,32.37z M38.11,16.28c0.92,1.58,0.38,3.61-1.21,4.53 c-1.58,0.92-3.61,0.38-4.53-1.21l-4.14-7.17c-0.92-1.58-0.38-3.61,1.21-4.53c1.58-0.92,3.61-0.38,4.53,1.21L38.11,16.28 L38.11,16.28z M111.27,62.19c-1.84,0-3.32-1.49-3.32-3.32s1.49-3.32,3.32-3.32h8.28c1.84,0,3.32,1.49,3.32,3.32 s-1.49,3.32-3.32,3.32H111.27L111.27,62.19z M106.59,38.11c-1.58,0.91-3.61,0.36-4.52-1.22c-0.91-1.58-0.36-3.61,1.22-4.52 l7.17-4.14c1.58-0.91,3.61-0.36,4.52,1.22c0.91,1.58,0.36,3.61-1.22,4.52L106.59,38.11L106.59,38.11z M90.51,19.6 c-0.92,1.58-2.95,2.13-4.53,1.21c-1.58-0.92-2.13-2.95-1.21-4.53l4.14-7.17c0.92-1.58,2.95-2.13,4.53-1.21 c1.58,0.92,2.13,2.95,1.21,4.53L90.51,19.6L90.51,19.6z M67.33,11.61c0,1.84-1.49,3.32-3.32,3.32c-1.84,0-3.32-1.49-3.32-3.32V3.32 c0-1.84,1.49-3.32,3.32-3.32c1.84,0,3.32,1.49,3.32,3.32V11.61L67.33,11.61z"/></g></svg>